<?xml version="1.0" encoding="UTF-8" standalone="no"?>
<!-- Created with Inkscape (http://www.inkscape.org/) -->

<svg
   width="512"
   height="512"
   viewBox="0 0 512 512"
   version="1.1"
   id="svg1"
   xml:space="preserve"
   xmlns:xlink="http://www.w3.org/1999/xlink"
   xmlns="http://www.w3.org/2000/svg"
   xmlns:svg="http://www.w3.org/2000/svg"><defs
     id="defs1"><linearGradient
       id="linearGradient1"><stop
         style="stop-color:#000000;stop-opacity:1;"
         offset="0.24842767"
         id="stop1" /><stop
         style="stop-color:#008080;stop-opacity:1;"
         offset="1"
         id="stop2" /></linearGradient><linearGradient
       xlink:href="#linearGradient1"
       id="linearGradient2"
       x1="428.37726"
       y1="68.26265"
       x2="83.233658"
       y2="444.00604"
       gradientUnits="userSpaceOnUse" /><clipPath
       clipPathUnits="userSpaceOnUse"
       id="clipPath13"><path
         id="path13"
         style="fill:#ff0000;fill-opacity:1;fill-rule:nonzero;stroke:none"
         d="M 17.853516,112.91406 V 240.76172 H 123.22266 V 112.91406 Z m 19.005859,4.40039 c 0.170755,8e-5 0.334064,0.16457 0.345703,0.51172 0.0018,0.0545 0.01156,0.10781 0.0059,0.16211 -0.07697,0.73644 -0.455562,1.44161 -0.779297,2.09375 -0.518761,1.0109 -1.184618,1.93483 -1.853516,2.84961 -0.623772,0.83181 -1.247868,1.66393 -1.863281,2.50195 -0.680109,0.91199 -1.341117,1.83727 -1.990235,2.77149 -0.940355,1.34398 -1.864736,2.69855 -2.746093,4.08203 -1.091803,1.71997 -2.11737,3.48043 -3.119141,5.25391 -0.82989,1.4766 -1.669304,2.94854 -2.480469,4.43554 -0.542868,0.9724 -1.068398,1.95273 -1.595703,2.9336 -0.184031,0.34295 -0.368143,0.68576 -0.554687,1.02734 -0.355166,0.65036 -1.011453,0.29096 -0.65625,-0.35938 0.185772,-0.34012 0.367507,-0.68 0.550781,-1.02148 0.528037,-0.98222 1.055999,-1.9657 1.599609,-2.93945 0.813061,-1.49016 1.654519,-2.96558 2.486328,-4.44531 1.008318,-1.785 2.03972,-3.55598 3.138672,-5.28711 0.886865,-1.39179 1.815543,-2.75534 2.761719,-4.10743 0.652877,-0.93957 1.317954,-1.86988 2.001953,-2.78711 0.615186,-0.83757 1.23969,-1.66869 1.863281,-2.5 0.643908,-0.88042 1.284281,-1.76805 1.785157,-2.74023 0.203591,-0.40936 0.409354,-0.81553 0.560546,-1.24805 0.02464,-0.0705 0.123269,-0.37987 0.142579,-0.49609 0.0047,-0.0285 -4.1e-5,-0.059 0,-0.0879 5.59e-4,-0.39364 0.202962,-0.60361 0.396484,-0.60352 z" /></clipPath><clipPath
       clipPathUnits="userSpaceOnUse"
       id="clipPath108"><path
         id="path109"
         style="fill:#ff0000;fill-opacity:1;fill-rule:nonzero;stroke:none"
         d="m 110.68945,288.6582 v 223.69532 h 74.14258 c -1.72122,-0.23575 -3.44131,-0.48041 -5.1582,-0.74414 -1.51205,-0.22191 -3.01223,-0.50409 -4.49219,-0.88477 -0.40935,-0.12556 -0.82807,-0.22102 -1.23242,-0.36328 -0.15041,-0.0529 -0.41215,-0.15127 -0.52734,-0.27344 -0.0873,-0.0926 -0.13804,-0.21336 -0.20704,-0.32031 0.0196,-0.16332 -0.006,-0.3389 0.0586,-0.49024 0.0911,-0.21392 0.43419,-0.44126 0.61718,-0.5625 0.36842,-0.24403 0.76144,-0.4388 1.15821,-0.63086 0.22054,-0.0991 0.44356,-0.1886 0.66992,-0.27148 0.22858,-0.21507 0.42728,-0.47344 0.69141,-0.64258 0.14302,-0.0916 0.52013,-0.23943 0.91601,-0.38281 0.0436,-0.0543 0.10422,-0.0976 0.18164,-0.125 -0.13072,-0.0159 -0.26226,-0.0235 -0.39648,-0.0195 -0.25503,0.007 -0.43664,-0.0649 -0.54297,-0.16992 -0.022,0.0477 -0.0412,0.0978 -0.0586,0.14843 -0.28409,0.8276 -1.14436,0.58168 -0.84961,-0.24218 0.10064,-0.28129 0.23188,-0.56497 0.42382,-0.79688 0.0568,-0.0686 0.12066,-0.12846 0.18164,-0.19336 0.70486,-0.6114 1.51509,-0.76842 2.40821,-0.92969 0.29467,-0.0448 0.58914,-0.0847 0.88476,-0.12109 -0.2072,-0.12601 -0.41845,-0.24267 -0.63867,-0.34375 -0.11376,-0.0522 -0.20454,-0.11385 -0.27539,-0.17969 -0.3278,-7.4e-4 -0.65655,2.3e-4 -0.98437,0 h -3.01563 c -0.875,0 -0.875,-0.88476 0,-0.88476 h 3.01563 c 0.84939,3.3e-4 1.69792,0.0409 2.54687,0.0664 h 0.002 c 0.0134,-0.002 0.0271,-0.003 0.041,-0.004 0.0102,-4.2e-4 0.0207,-4.2e-4 0.0312,0 0.021,8.2e-4 0.0428,0.004 0.0644,0.008 0.45696,0.0155 0.91503,-0.004 1.3711,0.0352 0.83465,0.0713 1.22033,0.13133 1.89062,0.23242 -0.009,-0.006 -0.0166,-0.0119 -0.0254,-0.0176 -0.29158,-0.18652 -0.59559,-0.3476 -0.92383,-0.46094 -0.1418,-0.0614 -0.28698,-0.11979 -0.42773,-0.18359 -0.0496,-0.0225 -0.15349,-0.0164 -0.14649,-0.0703 0.0292,-0.22714 0.0424,-0.39439 0.0527,-0.51758 -0.26805,-0.0659 -0.53614,-0.12965 -0.80469,-0.19531 -0.25363,-0.0685 -0.50297,-0.15268 -0.76172,-0.20118 -0.20958,-0.0565 -0.42069,-0.11056 -0.63672,-0.13476 -0.21352,-0.0138 -0.42729,-0.0366 -0.64062,-0.0527 -0.24121,0.004 -0.48174,0.0103 -0.72266,0.0234 -0.22697,0.0138 -0.45317,0.0389 -0.67969,0.0586 -0.87169,0.076 -0.86743,-0.77007 0,-0.88476 0.20752,-0.0274 0.41615,-0.0437 0.625,-0.0566 0.25372,-0.014 0.50773,-0.0204 0.76172,-0.0254 0.23801,0.009 0.47523,0.0395 0.71289,0.0547 0.27503,0.0254 0.54444,0.0924 0.81055,0.16406 0.25842,0.0477 0.50638,0.13377 0.75977,0.20117 0.42837,0.10387 0.85722,0.20062 1.2832,0.31445 0.54381,0.14146 1.07661,0.32374 1.59766,0.53321 0.65056,0.25818 1.29238,0.53753 1.93164,0.82226 0.61004,0.27674 1.23411,0.52069 1.86523,0.74414 0.72489,0.21734 1.451,0.43586 2.16211,0.69531 0.0262,0.01 0.052,0.0196 0.0781,0.0293 0.23075,0.0695 0.46215,0.13731 0.69336,0.20508 0.40933,0.0411 0.81773,0.0847 1.22656,0.12891 1.86968,0.23404 3.74277,0.46718 5.58789,0.85742 0.27781,0.0588 0.5534,0.1275 0.83008,0.1914 1.46012,0.34486 2.87458,0.85164 4.28906,1.34571 0.28269,0.10547 0.56739,0.20707 0.85156,0.31054 0.46435,0.08 0.92895,0.15629 1.39453,0.22852 -0.17662,-0.0467 -0.35387,-0.0912 -0.53125,-0.13477 -0.158,-0.0388 -0.14272,-0.18367 -0.0156,-0.18945 0.0182,-8.2e-4 0.038,1.7e-4 0.0605,0.006 0.20653,0.0507 0.41387,0.1025 0.61915,0.1582 0.0236,0.006 0.0468,0.0132 0.0703,0.0195 0.004,-6.6e-4 0.009,-0.002 0.0137,-0.002 0.14401,-0.014 0.28912,-0.0108 0.43359,-0.008 0.3799,0.0191 0.75547,0.0802 1.13086,0.13867 0.4629,0.0726 0.92551,0.14395 1.38867,0.21484 0.2748,0.0425 0.55013,0.0841 0.82422,0.13086 0.1833,0.0313 0.15203,0.21685 -0.0312,0.18555 -0.27303,-0.0467 -0.54658,-0.0886 -0.82031,-0.13086 -0.46332,-0.0709 -0.92756,-0.14224 -1.39062,-0.21484 -0.28588,-0.0446 -0.57297,-0.0917 -0.86133,-0.11914 0.17117,0.0519 0.34217,0.10504 0.51367,0.15625 0.0869,0.0127 0.17484,0.0244 0.26172,0.0371 0.6212,0.0968 1.24223,0.19454 1.86328,0.29101 0.006,-0.003 0.0134,-0.004 0.0215,-0.006 0.0103,-0.006 0.0231,-0.0106 0.0391,-0.0117 0.006,-4.2e-4 0.0108,-4.3e-4 0.0176,0 0.24227,0.016 0.48582,0.033 0.72852,0.041 0.27872,0.01 0.55788,0.0159 0.83398,0.0586 0.0639,0.0119 0.1008,0.0172 0.15625,0.0312 0.0476,-0.0393 0.11865,-0.0643 0.21289,-0.0625 0.0241,4.7e-4 0.0511,0.004 0.0781,0.008 0.22648,0.0351 0.11114,0.0161 0.3457,0.0566 0.29563,0.0561 0.59057,0.11753 0.87696,0.21093 0.25803,0.0842 0.29046,0.26742 0.17773,0.36524 0.32305,0.0794 0.64698,0.15809 0.9707,0.23437 V 288.6582 Z m 75.72461,215.13868 0.002,0.002 c 0.0495,0.0111 0.099,0.022 0.14843,0.0332 -0.0503,-0.0118 -0.10014,-0.0245 -0.15039,-0.0351 z m -5.21094,0.0859 c 0.0655,0.0907 0.13057,0.18193 0.19532,0.27344 0.51283,-0.0392 1.02724,-0.0698 1.54101,-0.0957 -0.37575,-0.053 -0.72863,-0.0952 -1.27929,-0.14258 -0.15222,-0.0131 -0.30466,-0.0252 -0.45704,-0.0352 z m 3.45508,0.99024 c -0.88757,0.0312 -1.77549,0.0681 -2.66211,0.12695 0.10589,0.0849 0.20952,0.17137 0.3125,0.25977 0.38674,-0.10508 0.26404,-0.0699 1.04883,-0.26172 0.84998,-0.20777 1.05903,0.64993 0.20899,0.85742 -0.25601,0.0625 -0.41377,0.10013 -0.52344,0.12695 l 0.002,0.002 c 0.15844,0.11588 0.32131,0.24093 0.45117,0.35156 0.57119,-0.0518 1.14454,-0.0957 1.7168,-0.13672 -0.066,-0.0512 -0.12444,-0.10802 -0.16992,-0.16992 -0.0492,-0.067 -0.0777,-0.14565 -0.11719,-0.21875 0.004,-0.11555 -0.0258,-0.23828 0.0117,-0.34766 0.11938,-0.3484 0.52972,-0.40417 0.83594,-0.44727 0.0938,-0.0159 0.18825,-0.0256 0.28125,-0.0273 0.19463,-0.003 0.38628,0.0205 0.57812,0.0566 -0.0119,-0.008 -0.0224,-0.0158 -0.0332,-0.0234 -0.0447,-0.0317 -0.09,-0.0612 -0.13086,-0.0976 -0.0192,-0.017 -0.0462,-0.0318 -0.0644,-0.0508 -0.58167,-0.0132 -1.16351,-0.0145 -1.7461,0 z m -5.63281,0.42773 c -0.0649,0.009 -0.13045,0.0195 -0.19531,0.0293 -0.53075,0.0936 -1.07688,0.1837 -1.55469,0.43164 0.50324,0.017 1.00133,0.13163 1.47266,0.30664 0.10903,0.0405 0.21553,0.0863 0.32226,0.13281 0.32907,-0.10378 0.65967,-0.20441 0.99024,-0.30273 -0.0395,-0.0894 -0.0597,-0.18998 -0.0508,-0.30664 -0.28913,-0.11614 -0.58418,-0.21405 -0.89063,-0.26953 -0.0327,-0.006 -0.0638,-0.0136 -0.0937,-0.0215 z m 6.66016,0.12305 v 0.002 c 0.002,0.005 0.008,0.0163 0.0117,0.0215 v 0.002 l 0.002,0.002 c 0.0122,0.011 0.0259,0.0213 0.0391,0.0312 -0.0158,-0.0199 -0.0324,-0.0411 -0.0508,-0.0586 z m 7.79297,0.5332 c 0.007,0.002 0.0128,0.005 0.0195,0.008 h 0.002 l 0.002,-0.002 c -0.008,-0.002 -0.0155,-0.004 -0.0234,-0.006 z m -6.26954,1.00977 c -0.40655,0.0171 -0.81236,0.0382 -1.21875,0.0645 -0.43558,0.0294 -0.87109,0.0605 -1.30664,0.0937 0.59266,0.37506 1.17812,0.76131 1.75977,1.15234 0.72615,0.48819 0.23194,1.22072 -0.49414,0.73243 -0.65151,-0.43815 -1.30705,-0.86891 -1.97266,-1.28516 -0.13336,0.19152 -0.45804,0.23017 -0.70703,0.22851 -0.003,0.002 -0.007,0.004 -0.01,0.006 -0.0285,0.13948 -0.0863,0.27318 -0.125,0.41016 -0.0106,0.0138 -0.0215,0.0269 -0.0312,0.041 0.23718,0.12414 0.47497,0.2478 0.71289,0.37109 0.77688,0.40259 0.34804,1.17243 -0.42969,0.77148 -0.30515,-0.1573 -0.60938,-0.3143 -0.91211,-0.47461 0.0387,0.12629 0.0655,0.25792 0.0781,0.39454 0.01,0.10102 0.005,0.20334 0,0.30468 -0.002,0.0337 -0.0108,0.0659 -0.0176,0.0996 0.12573,-0.0122 0.2673,-0.021 0.42773,-0.041 0.63125,-0.0787 1.63878,-0.17984 2.26367,-0.24414 0.37047,-0.0362 0.74082,-0.0716 1.11133,-0.10742 0.37304,-0.0361 1.34621,-0.12075 1.75977,-0.18555 0.0751,-0.0118 0.32842,-0.0412 0.51367,-0.11328 0.0632,-0.71634 0.89602,-0.70044 1.42187,-0.71875 0.49487,-0.0172 0.93411,0.003 1.39649,0.0312 -0.002,-0.084 -0.007,-0.16797 -0.01,-0.25196 -0.0836,-0.13736 -0.11979,-0.24811 -0.10156,-0.32812 -0.59383,-0.11067 -1.18476,-0.23196 -1.77539,-0.36133 -0.7818,-0.18145 -1.56286,-0.36893 -2.33399,-0.58984 z m 12.34961,0.76758 c 0.30502,0.0302 0.61322,0.0548 0.91797,0.082 -0.0387,-0.01 -0.0781,-0.0188 -0.11718,-0.0274 -0.0445,-0.011 -0.0883,-0.0223 -0.13282,-0.0332 v 0.002 l -0.002,0.002 v 0.002 0.002 0.002 0.002 l -0.002,0.002 v 0.002 l -0.002,0.002 -0.002,0.002 h -0.002 -0.002 c -0.0103,4.6e-4 -0.0275,-0.005 -0.043,-0.0117 l -0.002,0.002 c -0.20198,-0.012 -0.40889,-0.0188 -0.61133,-0.0312 z m -20.79687,0.17968 c -0.44732,0.0956 -0.89556,0.19442 -1.33984,0.30664 0.52878,0.13773 1.07346,0.2114 1.61328,0.28516 0.69503,0.0531 1.36448,0.10706 2.05273,0.0234 -0.0566,-0.0574 -0.12376,-0.11891 -0.2168,-0.19922 -0.17871,-0.009 -0.35769,-0.0264 -0.53515,-0.0488 -0.41173,-0.052 -0.59449,-0.10557 -0.9961,-0.19727 -0.19556,-0.0483 -0.38766,-0.10627 -0.57812,-0.16992 z m 31.43945,0.21485 c 0.13731,0.0254 0.27522,0.0513 0.41211,0.0781 v -0.002 l -0.002,-0.002 v -0.002 c -0.10376,-0.0227 -0.20787,-0.0406 -0.3125,-0.0586 -0.0323,-0.005 -0.0653,-0.009 -0.0977,-0.0137 z m -34.14258,0.5 c -0.21116,0.0765 -0.41905,0.16064 -0.625,0.25195 -0.35594,0.1713 -0.70311,0.34676 -1.03711,0.55859 -0.0469,0.0297 -0.0911,0.062 -0.13671,0.0937 0.37577,0.1285 0.76334,0.21938 1.14257,0.33594 0.26088,0.0672 0.52303,0.13033 0.78516,0.19141 -0.0286,-0.22196 0.16173,-0.44483 0.54688,-0.45313 0.0483,-0.001 0.1,0.002 0.15429,0.008 l 0.33008,0.0371 c 1.21301,0.13475 2.42966,0.23732 3.64453,0.35352 0.28131,0.0225 0.56239,0.0444 0.84375,0.0664 -0.022,-0.0558 -0.0415,-0.1117 -0.0566,-0.16993 -0.0127,-0.0489 0.0126,-0.10009 0.0176,-0.15039 0.005,-0.0496 0.0127,-0.10049 0.0117,-0.15039 -0.002,-0.0956 -0.0184,-0.18574 -0.0449,-0.27148 -0.0243,0.005 -0.0478,0.0106 -0.0723,0.0156 -0.85963,0.1751 -1.72647,0.10534 -2.5918,0.043 -0.75607,-0.10021 -1.52282,-0.20717 -2.24804,-0.45508 -0.14536,-0.0497 -0.44814,-0.16214 -0.66407,-0.30468 z m 12.71289,0.44921 c -0.0208,0.004 -0.0738,0.0276 -0.0976,0.0332 -0.009,0.0136 -0.0226,0.0396 -0.0352,0.0625 0.0566,-0.0244 0.10439,-0.0536 0.13672,-0.0879 l 0.002,-0.002 0.002,-0.002 v -0.002 -0.002 h -0.002 -0.002 -0.002 z m 0.72071,0.0645 v 0.002 h -0.002 v 0.002 c -0.0259,0.12986 -0.0297,0.26301 -0.0449,0.39454 -0.0918,0.11152 -0.16107,0.24763 -0.27539,0.33593 -0.23224,0.17944 -0.71665,0.25943 -0.96875,0.29883 -0.70726,0.11058 -1.42347,0.15105 -2.13672,0.21484 0.59182,0.0402 1.18341,0.0797 1.77539,0.11719 2.01625,0.12104 4.0332,0.223 6.05274,0.26367 0.008,-0.0233 0.0198,-0.0462 0.0332,-0.0684 -0.19012,-0.0786 -0.3792,-0.16042 -0.5664,-0.24609 -0.19624,-0.13327 -0.48174,-0.1883 -0.5879,-0.40039 -0.12516,-0.25005 -0.16382,-0.44065 -0.14062,-0.58594 -0.21921,-0.018 -0.43934,-0.0361 -0.6582,-0.0547 -0.80271,-0.0479 -1.09002,-0.0797 -1.87305,-0.0684 -0.18647,0.003 -0.37671,0.0725 -0.55859,0.0312 -0.002,-5e-4 -0.007,-0.003 -0.01,-0.004 h -0.002 v -0.002 h -0.002 c -9.3e-4,-8.8e-4 -0.005,-0.005 -0.006,-0.006 -0.0222,-0.0325 -0.002,-0.10959 -0.0117,-0.1543 -0.004,-0.0169 -0.0107,-0.0582 -0.0156,-0.0684 v -0.002 z m -15.5586,0.22461 -0.002,0.002 h -0.002 -0.002 v 0.002 h -0.002 v 0.002 0.002 0.002 l 0.002,0.002 0.002,0.002 c 0.0132,0.0155 0.0534,0.0406 0.0723,0.0508 0.0113,0.006 0.0236,0.012 0.0352,0.0176 -0.002,-0.008 -0.005,-0.0175 -0.008,-0.0254 -0.0269,-0.016 -0.0516,-0.0512 -0.0801,-0.0566 -0.002,-2.3e-4 -0.008,-1.5e-4 -0.01,0 h -0.002 -0.002 z m 21.14844,0.18945 c -0.0465,0.0624 -0.096,0.12779 -0.14062,0.19141 l 0.002,0.002 h 0.002 0.002 0.002 l 0.002,0.002 h 0.002 0.002 0.002 0.002 v 0.002 0.002 h -0.002 c -0.004,0.001 -0.0132,0.002 -0.0234,0.002 -0.0207,0.0302 -0.0398,0.0608 -0.0586,0.0918 -0.0959,0.001 -0.40198,0.005 -0.68945,0.01 0.51621,0.21381 1.04133,0.40409 1.57226,0.57812 0.26565,-9.8e-4 0.41873,-0.002 1.4375,-0.008 0.28562,-0.003 0.55696,-0.005 0.82227,-0.008 -0.97395,-0.30397 -1.95203,-0.5947 -2.93555,-0.86524 z m -0.14844,0.20117 c 0.002,-0.003 0.006,-0.007 0.008,-0.01 -0.0268,-0.005 -0.0554,-0.009 -0.082,-0.0137 l 0.002,0.002 v 0.002 0.002 h 0.002 v 0.002 l 0.002,0.002 0.002,0.002 c 0.0148,0.009 0.0452,0.0123 0.0664,0.0117 z m -1.64453,0.1543 c -0.0196,0.004 -0.0392,0.009 -0.0586,0.0137 h -0.002 v 0.002 h -0.002 v 0.002 h -0.002 v 0.002 0.002 0.002 c -1.1e-4,0.01 0.004,0.0248 0.01,0.0332 v 0.002 l 0.002,0.002 h 0.002 v 0.002 h 0.002 0.002 0.002 l 0.002,-0.002 c 0.0154,-0.021 0.0298,-0.0412 0.043,-0.0606 z m 14.28516,0.48828 c 1.1e-4,0.003 -1.2e-4,0.004 0,0.008 0.0234,1.2e-4 0.0469,-1.1e-4 0.0703,0 -0.0234,-0.003 -0.0469,-0.005 -0.0703,-0.008 z m -26.76953,0.48633 c 1.22934,0.18379 2.46008,0.35926 3.6914,0.5293 -0.0104,-0.0463 -0.0103,-0.0924 -0.004,-0.13672 -0.0512,0.0205 -0.13284,0.002 -0.24024,-0.0215 l -0.002,0.002 v 0.002 l -0.002,0.002 c -0.0613,0.0859 -0.20976,-0.0262 -0.31446,-0.0391 -0.52446,-0.0644 -1.05008,-0.12871 -1.57421,-0.19531 l 0.002,-0.002 v -0.002 -0.002 -0.002 l -0.002,-0.002 v -0.002 l -0.002,-0.002 -0.002,-0.002 -0.002,-0.002 -0.002,-0.002 h -0.002 l -0.002,-0.002 h -0.002 c -0.51381,-0.0394 -1.02735,-0.0801 -1.54101,-0.12109 z m 5.80273,0.42773 c 1.6467,0.38819 3.30206,0.73944 4.97852,0.97852 0.16828,0.019 0.33559,0.0398 0.5039,0.0606 h 4.89063 c 0.35856,-0.0786 0.7062,-0.18447 1.03711,-0.32422 0.006,-0.002 0.012,-0.005 0.0176,-0.008 -0.41422,-0.1125 -0.82934,-0.22698 -1.24219,-0.3457 -0.62456,-7e-4 -1.24835,-0.002 -1.87305,-0.006 -2.38018,-0.0217 -4.75728,-0.13668 -7.13281,-0.2793 -0.39312,-0.0249 -0.78664,-0.05 -1.17969,-0.0762 z m 14.48828,0.35743 c 0.0934,0.005 0.18783,0.009 0.28125,0.0137 -0.009,-0.005 -0.0185,-0.009 -0.0273,-0.0137 -0.0846,1.8e-4 -0.16933,-1.9e-4 -0.25391,0 z" /></clipPath></defs><g
     id="layer3"
     style="display:inline;opacity:1"><circle
       style="display:inline;opacity:1;fill:url(#linearGradient2)"
       id="path1"
       cx="256.59882"
       cy="256"
       r="256" /><path
       id="path5-14-1-6"
       clip-path="url(#clipPath13)"
       style="display:inline;opacity:1;fill:#ffffff;fill-opacity:1;stroke-width:0.896447"
       d="m 40.638672,118.53516 a 256,256 0 0 0 -15.783203,28.69336 l 67.3125,93.5332 31.054691,-7.375 z" /><path
       id="path5-14-1"
       clip-path="url(#clipPath108)"
       style="display:inline;fill:#ffffff;fill-opacity:1;stroke-width:0.896447"
       d="m 139.52539,288.6582 -28.83594,6.14063 68.04493,205.07226 a 256,256 0 0 0 33.25,8.21094 z" /><ellipse
       style="opacity:1;fill:#ffffff;fill-opacity:1;stroke-width:1.03366"
       id="path2"
       cx="318.3219"
       cy="137.47485"
       rx="44.037449"
       ry="43.910316" /><ellipse
       style="opacity:1;fill:#ffffff;fill-opacity:1;stroke-width:1.05944"
       id="path3"
       cx="421.17755"
       cy="304.03046"
       rx="43.908176"
       ry="43.793503" /><ellipse
       style="opacity:1;fill:#ffffff;fill-opacity:1;stroke-width:1.02085"
       id="path4"
       cx="117.7155"
       cy="254.37979"
       rx="44.036999"
       ry="44.143311" /><path
       d="m 132.13792,229.16496 16.2285,24.88545 166.75165,-95.52083 -11.43786,-27.58017 z"
       style="fill:#ffffff;stroke-width:0.904688"
       id="path5" /><path
       d="m 388.49152,281.16835 24.01741,-18.00543 -58.69249,-106.75669 -26.59142,14.67564 z"
       style="display:inline;opacity:1;fill:#ffffff;stroke-width:0.896447"
       id="path5-14" /><path
       id="path5-1"
       style="display:inline;opacity:1;fill:#ffffff;fill-opacity:1;stroke-width:0.904688"
       d="m 399.69922,338.89453 -34.75391,149.04688 a 256,256 0 0 0 35.48242,-20.16602 l 27.77539,-124.6543 z" /><path
       style="fill:#ffffff;fill-opacity:1"
       d="M 24.855469,147.22656 40.636543,118.53982 Z"
       id="path14" /></g></svg>
